<svg xmlns="http://www.w3.org/2000/svg" viewBox="0 0 512 512">
  <rect width="512" height="512" rx="96" fill="#171717"/>
  <path fill="#4fb286" d="M116 142c0-23 19-42 42-42h196c23 0 42 19 42 42v154c0 23-19 42-42 42H158c-23 0-42-19-42-42V142Z"/>
  <path fill="#fffaf0" d="M166 160c0-10 8-18 18-18h144c10 0 18 8 18 18v40c0 10-8 18-18 18H184c-10 0-18-8-18-18v-40Z"/>
  <path fill="#171717" d="M181 382h150c9 0 16 7 16 16s-7 16-16 16H181c-9 0-16-7-16-16s7-16 16-16Z"/>
  <circle cx="184" cy="280" r="26" fill="#171717"/>
  <circle cx="328" cy="280" r="26" fill="#171717"/>
  <path fill="#ef6f4d" d="M227 261c0-10 8-18 18-18h22c10 0 18 8 18 18v22c0 10-8 18-18 18h-22c-10 0-18-8-18-18v-22Z"/>
</svg>
